PathFileType	4	(x/y/z)	S06_M20_T22
DataRate	CameraRate	NumFrames	NumMarkers	Units	OrigDataRate	OrigDataStartFrame	OrigNumFrames
240	240	11	51	mm	240	64	511
Frame#	Time	Sternum			R.Acromium			L.Acromium			Top.Head			R.ASIS			L.ASIS			R.PSIS			L.PSIS			R.Great.Tro			L.Great.Tro			R.Iliac.Crest			L.Iliac.Crest			V.Sacral			R.Thigh.Upper.Post			R.Thigh.Lower.Ant			R.Thigh.Lower.Post			R.Thigh.Upper.Ant			R.Knee.Lat			R.Knee.Med			R.Shank.Upper.Post			R.Shank.Lower.Ant			R.Shank.Lower.Post			R.Shank.Upper.Ant			R.Ankle.Lat			R.Ankle.Med			R.Heel.Upper			R.Heel.Med			R.Heel.Lat			R.Toe.Lat			R.Toe.Med			R.Toe.Tip			L.Thigh.Upper.Post			L.Thigh.Lower.Ant			L.Thigh.Lower.Post			L.Thigh.Upper.Ant			L.Knee.Lat			L.Knee.Med			L.Shank.Upper.Post			L.Shank.Lower.Ant			L.Shank.Lower.Post			L.Shank.Upper.Ant			L.Ankle.Lat			L.Ankle.Med			L.Heel.Upper			L.Heel.Med			L.Heel.Lat			L.Toe.Lat			L.Toe.Med			L.Toe.Tip			Cervical.Spine			Back			
		X1	Y1	Z1	X2	Y2	Z2	X3	Y3	Z3	X4	Y4	Z4	X5	Y5	Z5	X6	Y6	Z6	X7	Y7	Z7	X8	Y8	Z8	X9	Y9	Z9	X10	Y10	Z10	X11	Y11	Z11	X12	Y12	Z12	X13	Y13	Z13	X14	Y14	Z14	X15	Y15	Z15	X16	Y16	Z16	X17	Y17	Z17	X18	Y18	Z18	X19	Y19	Z19	X20	Y20	Z20	X21	Y21	Z21	X22	Y22	Z22	X23	Y23	Z23	X24	Y24	Z24	X25	Y25	Z25	X26	Y26	Z26	X27	Y27	Z27	X28	Y28	Z28	X29	Y29	Z29	X30	Y30	Z30	X31	Y31	Z31	X32	Y32	Z32	X33	Y33	Z33	X34	Y34	Z34	X35	Y35	Z35	X36	Y36	Z36	X37	Y37	Z37	X38	Y38	Z38	X39	Y39	Z39	X40	Y40	Z40	X41	Y41	Z41	X42	Y42	Z42	X43	Y43	Z43	X44	Y44	Z44	X45	Y45	Z45	X46	Y46	Z46	X47	Y47	Z47	X48	Y48	Z48	X49	Y49	Z49	X50	Y50	Z50	X51	Y51	Z51	

64	0.2625	-1203.9	1298	308.81	-1344.4	1499.8	473.32	-1363.3	1493.7	123.46	-1303.7	1812.5	291.89	NaN	NaN	NaN	NaN	NaN	NaN	-1434.9	1066.1	333.42	-1436.7	1071.9	253.55	-1296.1	976.08	481.08	-1316.6	982.04	122.82	-1337.4	1126.7	464.58	-1304.8	1127	141.9	-1448.8	1034.5	296.3	-1263.8	731.59	490.63	-1196.8	653.89	464.84	-1261.7	641.58	479.18	-1192.4	745.67	473.19	-1244.9	537.39	473.88	-1228.2	527.55	345.01	-1440	424.61	475.23	-1459.5	338.79	462.77	-1497.7	376.34	462.83	-1388.4	381.75	474.47	-1583.7	272.63	447.28	-1561	253.01	365.99	-1649.1	289.51	392.49	-1663.4	260.78	363.97	-1671.3	270.5	427.58	-1578.4	127.31	491.5	-1545.3	98.993	379.75	NaN	NaN	NaN	-1216.6	725.81	145.88	-1159.2	655.84	209.31	-1223.7	637.42	167.38	-1158.2	748.09	183.45	-1228.5	542.91	187.46	-1201.3	555.62	306.29	-1283.6	317.68	205.91	-1221.6	253.63	212.05	-1292.5	247.7	226.13	-1217	323.02	196.87	-1255.7	108.71	232.4	-1245.4	129.65	320.96	-1335.4	75.636	278.89	-1330.1	47.724	310	-1330.6	51.606	248.08	-1151.9	46.617	208.84	-1131.9	39.189	329.47	-1057.9	52.103	273.41	-1413.9	1547.4	299.57	-1451.1	1269.8	302.66
65	0.26667	-1198.9	1298.6	308.66	-1339.4	1500.4	473.17	-1358.1	1494.3	123.32	-1298.5	1813.1	291.85	NaN	NaN	NaN	NaN	NaN	NaN	-1430.1	1066.7	333.44	-1431.9	1072.6	253.58	-1290.7	976.67	480.87	-1312.2	982.78	122.64	-1332.4	1127.3	464.45	-1300.1	1127.7	141.77	-1443.9	1035.1	296.3	-1255.7	732.48	490.42	-1188.2	655.53	464.13	-1252.7	642.56	478.76	-1184.4	747.3	472.85	-1234.6	538.56	473.3	-1217.7	528.91	344.42	-1428.3	424.08	474.94	-1446.6	337.86	462.43	-1485.3	375.06	462.76	-1376.4	381.77	474.18	-1570.7	270.59	447.54	-1548.3	251.39	366.12	-1637.1	286.42	393.01	-1651	257.28	364.59	-1659	267.01	428.24	-1562.8	125.59	491.81	-1529.9	97.741	379.84	NaN	NaN	NaN	-1213.7	726.1	145.72	-1156.6	655.7	209.06	-1221.3	637.72	167.15	-1155	747.95	183.18	-1226.8	543.06	187.34	-1199.5	555.64	306.17	-1282.8	317.89	205.92	-1221	253.64	211.98	-1292	247.95	226.19	-1216.3	323.02	196.74	-1255.8	108.81	232.46	-1245.1	129.82	321	-1335.4	75.824	278.96	-1330.1	47.872	310.03	-1330.5	51.803	248.14	-1151.8	46.613	208.83	-1131.9	39.112	329.51	-1057.8	51.86	273.37	-1408.8	1548	299.41	-1446.2	1270.5	302.45
66	0.27083	-1193.9	1299.2	308.5	-1334.4	1501	473.02	-1352.9	1495	123.18	-1293.3	1813.6	291.81	NaN	NaN	NaN	NaN	NaN	NaN	-1425.3	1067.2	333.47	-1427.2	1073.1	253.62	-1285.4	977.24	480.66	-1307.8	983.51	122.46	-1327.3	1127.8	464.31	-1295.4	1128.4	141.63	-1439.1	1035.6	296.31	-1247.5	733.4	490.2	-1179.5	657.2	463.39	-1243.7	643.55	478.33	-1176.4	748.94	472.5	-1224.4	539.76	472.7	-1207.4	530.33	343.8	-1416.6	423.45	474.67	-1433.7	336.83	462.06	-1473	373.67	462.72	-1364.4	381.73	473.86	-1557.7	268.42	447.79	-1535.5	249.67	366.22	-1625	283.19	393.52	-1638.5	253.63	365.19	-1646.6	263.37	428.88	-1547	123.79	492.05	-1514.4	96.44	379.85	NaN	NaN	NaN	-1210.8	726.4	145.57	-1154.1	655.56	208.83	-1218.9	638.04	166.94	-1151.8	747.81	182.92	-1225.1	543.22	187.24	-1197.8	555.67	306.06	-1282	318.1	205.94	-1220.4	253.66	211.92	-1291.4	248.2	226.27	-1215.6	323.03	196.61	-1255.9	108.91	232.53	-1244.9	129.99	321.04	-1335.3	76.019	279.03	-1330.1	48.028	310.07	-1330.4	52.002	248.19	-1151.8	46.609	208.82	-1131.8	39.04	329.55	-1057.7	51.618	273.32	-1403.7	1548.6	299.26	-1441.4	1271.2	302.25
67	0.275	-1189	1299.7	308.35	-1329.4	1501.5	472.88	-1347.7	1495.6	123.06	-1288.1	1814.1	291.77	NaN	NaN	NaN	NaN	NaN	NaN	-1420.5	1067.7	333.52	-1422.4	1073.7	253.67	-1280	977.81	480.46	-1303.4	984.21	122.29	-1322.2	1128.3	464.18	-1290.8	1129.1	141.5	-1434.3	1036.1	296.34	-1239.5	734.34	489.97	-1170.7	658.89	462.63	-1234.8	644.56	477.91	-1168.5	750.6	472.13	-1214.3	541	472.08	-1197.1	531.8	343.16	-1404.9	422.73	474.41	-1420.7	335.72	461.65	-1460.5	372.17	462.69	-1352.4	381.63	473.51	-1544.5	266.14	448.01	-1522.6	247.85	366.29	-1612.8	279.82	394.02	-1625.9	249.85	365.76	-1634	259.58	429.5	-1531.1	121.89	492.23	-1498.7	95.097	379.78	NaN	NaN	NaN	-1208	726.69	145.45	-1151.6	655.42	208.62	-1216.6	638.35	166.74	-1148.6	747.67	182.68	-1223.4	543.38	187.15	-1196.1	555.71	305.96	-1281.3	318.31	205.98	-1219.9	253.69	211.88	-1290.9	248.46	226.37	-1214.9	323.05	196.5	-1255.9	109.02	232.6	-1244.6	130.15	321.08	-1335.2	76.221	279.1	-1330.1	48.191	310.12	-1330.3	52.202	248.26	-1151.7	46.606	208.82	-1131.8	38.972	329.59	-1057.6	51.378	273.28	-1398.6	1549.2	299.11	-1436.6	1271.8	302.07
68	0.27917	-1184.1	1300.3	308.19	-1324.5	1502.1	472.74	-1342.5	1496.2	122.94	-1282.9	1814.6	291.74	NaN	NaN	NaN	NaN	NaN	NaN	-1415.7	1068.1	333.56	-1417.7	1074.2	253.73	-1274.7	978.36	480.25	-1299.1	984.89	122.11	-1317.1	1128.8	464.05	-1286.1	1129.7	141.36	-1429.5	1036.6	296.37	-1231.6	735.31	489.74	-1161.9	660.61	461.86	-1225.9	645.58	477.47	-1160.6	752.28	471.73	-1204.2	542.26	471.46	-1187	533.33	342.49	-1393.2	421.91	474.15	-1407.6	334.52	461.21	-1448.1	370.55	462.67	-1340.4	381.49	473.14	-1531.3	263.75	448.21	-1509.6	245.95	366.33	-1600.4	276.3	394.49	-1613.1	245.94	366.3	-1621.2	255.63	430.08	-1515	119.92	492.35	-1482.9	93.716	379.63	NaN	NaN	NaN	-1205.3	726.99	145.34	-1149.1	655.28	208.43	-1214.3	638.68	166.58	-1145.5	747.53	182.45	-1221.8	543.55	187.08	-1194.5	555.75	305.88	-1280.6	318.53	206.04	-1219.3	253.73	211.85	-1290.4	248.71	226.47	-1214.3	323.09	196.41	-1255.9	109.14	232.67	-1244.3	130.32	321.13	-1335.1	76.427	279.19	-1330.1	48.362	310.16	-1330.3	52.404	248.32	-1151.7	46.605	208.82	-1131.8	38.907	329.62	-1057.5	51.138	273.25	-1393.6	1549.7	298.97	-1431.7	1272.4	301.91
69	0.28333	-1179.2	1300.8	308.04	-1319.5	1502.6	472.61	-1337.3	1496.8	122.83	-1277.8	1815.1	291.7	NaN	NaN	NaN	NaN	NaN	NaN	-1410.9	1068.5	333.61	-1413	1074.7	253.79	-1269.4	978.9	480.05	-1294.7	985.54	121.94	-1311.9	1129.3	463.91	-1281.5	1130.3	141.22	-1424.7	1037.1	296.41	-1223.8	736.3	489.5	-1153.1	662.36	461.08	-1217	646.62	477.04	-1152.8	753.98	471.3	-1194.2	543.56	470.82	-1177.1	534.91	341.81	-1381.5	421.01	473.91	-1394.4	333.26	460.74	-1435.6	368.83	462.67	-1328.5	381.29	472.74	-1518	261.25	448.37	-1496.5	243.96	366.34	-1587.9	272.65	394.94	-1600.2	241.89	366.79	-1608.3	251.54	430.62	-1498.7	117.88	492.41	-1466.9	92.303	379.42	NaN	NaN	NaN	-1202.6	727.29	145.25	-1146.7	655.15	208.25	-1212	639	166.43	-1142.4	747.37	182.24	-1220.3	543.73	187.02	-1192.9	555.81	305.82	-1279.9	318.75	206.13	-1218.8	253.78	211.83	-1289.8	248.96	226.6	-1213.7	323.14	196.33	-1256	109.27	232.76	-1244	130.48	321.17	-1335.1	76.637	279.27	-1330.1	48.54	310.22	-1330.2	52.607	248.4	-1151.6	46.605	208.83	-1131.7	38.844	329.65	-1057.4	50.898	273.21	-1388.5	1550.3	298.83	-1426.9	1273	301.76
70	0.2875	-1174.3	1301.3	307.88	-1314.4	1503.1	472.48	-1332.1	1497.3	122.73	-1272.7	1815.6	291.65	NaN	NaN	NaN	NaN	NaN	NaN	-1406.1	1068.9	333.66	-1408.3	1075.2	253.84	-1264.1	979.43	479.84	-1290.4	986.16	121.76	-1306.8	1129.7	463.77	-1276.8	1130.9	141.08	-1420	1037.5	296.45	-1216.1	737.33	489.24	-1144.4	664.13	460.31	-1208.2	647.67	476.6	-1145.1	755.69	470.84	-1184.2	544.87	470.18	-1167.2	536.53	341.12	-1369.7	420.01	473.67	-1381.2	331.94	460.27	-1423.1	367.01	462.67	-1316.5	381.05	472.32	-1504.5	258.64	448.51	-1483.3	241.88	366.31	-1575.2	268.86	395.35	-1587.1	237.73	367.24	-1595.1	247.31	431.12	-1482.3	115.78	492.41	-1450.8	90.863	379.15	NaN	NaN	NaN	-1199.9	727.58	145.18	-1144.3	655.01	208.1	-1209.7	639.33	166.31	-1139.3	747.22	182.04	-1218.8	543.91	186.99	-1191.4	555.86	305.77	-1279.2	318.98	206.23	-1218.3	253.84	211.82	-1289.3	249.22	226.74	-1213.1	323.2	196.27	-1255.9	109.4	232.84	-1243.7	130.63	321.21	-1335	76.851	279.37	-1330.1	48.725	310.28	-1330.1	52.81	248.48	-1151.6	46.608	208.85	-1131.7	38.784	329.68	-1057.2	50.66	273.18	-1383.4	1550.8	298.7	-1422.1	1273.6	301.62
71	0.29167	-1169.5	1301.7	307.72	-1309.4	1503.6	472.36	-1326.9	1497.9	122.63	-1267.6	1816	291.61	NaN	NaN	NaN	NaN	NaN	NaN	-1401.4	1069.3	333.7	-1403.7	1075.7	253.89	-1258.9	979.94	479.64	-1286.1	986.75	121.58	-1301.7	1130.1	463.61	-1272.2	1131.5	140.94	-1415.3	1037.9	296.49	-1208.6	738.38	488.97	-1135.7	665.92	459.55	-1199.5	648.74	476.17	-1137.4	757.42	470.33	-1174.3	546.21	469.53	-1157.5	538.19	340.41	-1358	418.93	473.43	-1367.9	330.58	459.78	-1410.5	365.1	462.67	-1304.5	380.75	471.87	-1491	255.93	448.6	-1470	239.71	366.26	-1562.5	264.95	395.72	-1573.8	233.44	367.65	-1581.8	242.94	431.57	-1465.8	113.63	492.36	-1434.5	89.401	378.83	NaN	NaN	NaN	-1197.4	727.87	145.13	-1141.9	654.88	207.97	-1207.5	639.66	166.21	-1136.2	747.05	181.86	-1217.3	544.09	186.97	-1189.8	555.93	305.74	-1278.6	319.21	206.35	-1217.8	253.91	211.84	-1288.8	249.48	226.89	-1212.5	323.27	196.23	-1255.9	109.53	232.94	-1243.4	130.77	321.25	-1335	77.068	279.47	-1330.2	48.916	310.34	-1330	53.014	248.56	-1151.5	46.612	208.87	-1131.6	38.726	329.71	-1057.1	50.424	273.15	-1378.2	1551.3	298.57	-1417.3	1274.2	301.49
72	0.29583	-1164.7	1302.1	307.55	-1304.4	1504.1	472.24	-1321.8	1498.4	122.54	-1262.5	1816.4	291.56	NaN	NaN	NaN	NaN	NaN	NaN	-1396.6	1069.6	333.73	-1399	1076.1	253.94	-1253.7	980.43	479.44	-1281.8	987.3	121.41	-1296.6	1130.5	463.46	-1267.6	1132	140.8	-1410.6	1038.3	296.51	-1201.1	739.46	488.69	-1127	667.72	458.8	-1190.8	649.82	475.72	-1129.8	759.17	469.79	-1164.5	547.57	468.88	-1147.8	539.88	339.7	-1346.2	417.76	473.2	-1354.6	329.17	459.29	-1398	363.12	462.66	-1292.6	380.41	471.41	-1477.3	253.13	448.66	-1456.6	237.46	366.16	-1549.5	260.91	396.06	-1560.4	229.03	367.99	-1568.3	238.44	431.97	-1449.2	111.44	492.24	-1418	87.923	378.45	NaN	NaN	NaN	-1194.8	728.15	145.1	-1139.6	654.74	207.85	-1205.3	639.98	166.14	-1133.2	746.87	181.7	-1215.9	544.28	186.97	-1188.3	556.01	305.73	-1277.9	319.44	206.49	-1217.3	253.98	211.86	-1288.4	249.74	227.06	-1212	323.35	196.2	-1255.9	109.66	233.04	-1243.1	130.9	321.28	-1334.9	77.287	279.58	-1330.2	49.113	310.41	-1329.9	53.216	248.66	-1151.4	46.618	208.89	-1131.6	38.669	329.74	-1057	50.191	273.13	-1373.1	1551.7	298.45	-1412.5	1274.7	301.37
73	0.3	-1159.9	1302.5	307.38	-1299.4	1504.5	472.13	-1316.6	1498.8	122.46	-1257.4	1816.8	291.51	NaN	NaN	NaN	NaN	NaN	NaN	-1391.9	1069.9	333.75	-1394.3	1076.5	253.97	-1248.5	980.91	479.24	-1277.5	987.83	121.23	-1291.5	1130.8	463.29	-1262.9	1132.5	140.65	-1405.9	1038.6	296.53	-1193.8	740.57	488.39	-1118.5	669.54	458.06	-1182.2	650.92	475.28	-1122.2	760.92	469.2	-1154.7	548.94	468.22	-1138.3	541.6	338.98	-1334.4	416.51	472.96	-1341.3	327.74	458.8	-1385.5	361.07	462.64	-1280.6	380.03	470.93	-1463.6	250.24	448.68	-1443	235.12	366.03	-1536.4	256.75	396.35	-1546.9	224.52	368.28	-1554.6	233.82	432.32	-1432.5	109.22	492.07	-1401.4	86.432	378.02	NaN	NaN	NaN	-1192.4	728.41	145.09	-1137.2	654.6	207.75	-1203.1	640.31	166.1	-1130.2	746.69	181.55	-1214.5	544.47	186.98	-1186.8	556.09	305.73	-1277.3	319.69	206.65	-1216.8	254.07	211.91	-1287.9	250	227.23	-1211.4	323.43	196.19	-1255.8	109.79	233.14	-1242.8	131.02	321.31	-1334.9	77.509	279.69	-1330.3	49.314	310.48	-1329.8	53.416	248.75	-1151.4	46.626	208.92	-1131.5	38.616	329.76	-1056.9	49.963	273.1	-1367.9	1552.1	298.33	-1407.8	1275.2	301.25
74	0.30417	-1155.1	1302.9	307.21	-1294.3	1504.9	472.03	-1311.5	1499.3	122.38	-1252.3	1817.2	291.46	NaN	NaN	NaN	NaN	NaN	NaN	-1387.2	1070.2	333.76	-1389.7	1076.8	253.98	-1243.3	981.36	479.04	-1273.2	988.31	121.05	-1286.5	1131.2	463.12	-1258.3	1132.9	140.51	-1401.2	1038.9	296.54	-1186.6	741.68	488.08	-1110	671.37	457.35	-1173.7	652.02	474.83	-1114.7	762.68	468.58	-1145.1	550.33	467.57	-1129	543.35	338.26	-1322.6	415.19	472.72	-1328	326.3	458.32	-1373	358.97	462.58	-1268.6	379.62	470.43	-1449.7	247.25	448.65	-1429.3	232.71	365.87	-1523.2	252.47	396.59	-1533.1	219.91	368.51	-1540.7	229.07	432.62	-1415.7	106.96	491.84	-1384.6	84.934	377.55	NaN	NaN	NaN	-1189.9	728.66	145.1	-1135	654.45	207.68	-1200.9	640.63	166.08	-1127.2	746.49	181.43	-1213.1	544.67	187.02	-1185.4	556.17	305.75	-1276.7	319.93	206.82	-1216.4	254.16	211.96	-1287.4	250.27	227.41	-1210.9	323.52	196.2	-1255.7	109.93	233.25	-1242.5	131.13	321.33	-1334.9	77.733	279.8	-1330.3	49.519	310.56	-1329.8	53.612	248.85	-1151.3	46.635	208.95	-1131.4	38.565	329.79	-1056.8	49.739	273.08	-1362.8	1552.5	298.22	-1403	1275.7	301.14
